<svg id="Capa_1" enable-background="new 0 0 512 512" height="512" viewBox="0 0 512 512" width="512" xmlns="http://www.w3.org/2000/svg"><g><path d="m0 256c0-141.384 114.615-255.999 255.999-256 141.187 0 256.207 115.195 256.001 256.382-.13 89.009-45.686 167.371-114.727 213.142-5.82 3.858-13.268 4.226-19.407.897-36.236-19.651-77.748-30.812-121.866-30.812-44.065 0-85.53 11.134-121.735 30.741-6.146 3.328-13.637 3.082-19.464-.777-69.181-45.83-114.801-124.374-114.801-213.573z" fill="#ffb52d"/><path d="m468.327 227.985c0 112.294-91.033 203.327-203.327 203.327s-203.327-91.033-203.327-203.327 91.033-203.327 203.327-203.327 203.327 91.033 203.327 203.327z" fill="#ffc14f"/><path d="m390 92.5v381.671c-38.978 23.991-84.873 37.829-134 37.829s-95.022-13.838-134-37.829v-381.671c0-8.284 6.716-15 15-15h238c8.284 0 15 6.716 15 15z" fill="#6a61b4"/><path d="m390 93v262c0 57.99-47.01 105-105 105-57.99 0-105-47.01-105-105v-262c0-8.284 6.716-15 15-15h180c8.284 0 15 6.716 15 15z" fill="#8078bf"/><path d="m410 157.5v35c0 4.142-3.358 7.5-7.5 7.5-1.921 0-3.673-.723-5-1.91v271.283c-4.885 3.246-9.887 6.328-15 9.24v-386.113c0-4.136-3.364-7.5-7.5-7.5h-238c-4.136 0-7.5 3.364-7.5 7.5v386.112c-5.113-2.912-10.115-5.994-15-9.24v-200.527c-1.158.731-2.529 1.155-4 1.155-4.142 0-7.5-3.358-7.5-7.5v-35c0-4.142 3.358-7.5 7.5-7.5 1.471 0 2.842.424 4 1.155v-22.31c-1.158.731-2.529 1.155-4 1.155-4.142 0-7.5-3.358-7.5-7.5v-35c0-4.142 3.358-7.5 7.5-7.5 1.471 0 2.842.424 4 1.155v-58.655c0-12.406 10.094-22.5 22.5-22.5h238c12.406 0 22.5 10.094 22.5 22.5v59.41c1.327-1.188 3.079-1.91 5-1.91 4.142 0 7.5 3.358 7.5 7.5z" fill="#453d83"/><path d="m281 435c0 2.761-2.239 5-5 5h-40c-2.761 0-5-2.239-5-5s2.239-5 5-5h40c2.761 0 5 2.239 5 5zm-10 25c2.761 0 5-2.239 5-5s-2.239-5-5-5h-30c-2.761 0-5 2.239-5 5s2.239 5 5 5zm5 10h-40c-2.761 0-5 2.239-5 5s2.239 5 5 5h40c2.761 0 5-2.239 5-5s-2.239-5-5-5zm-75-40h-40c-2.761 0-5 2.239-5 5s2.239 5 5 5h40c2.761 0 5-2.239 5-5s-2.239-5-5-5zm-5 30c2.761 0 5-2.239 5-5s-2.239-5-5-5h-30c-2.761 0-5 2.239-5 5s2.239 5 5 5zm5 10h-40c-2.761 0-5 2.239-5 5s2.239 5 5 5h40c2.761 0 5-2.239 5-5s-2.239-5-5-5zm110-30h40c2.761 0 5-2.239 5-5s-2.239-5-5-5h-40c-2.761 0-5 2.239-5 5s2.239 5 5 5zm5 10c-2.761 0-5 2.239-5 5s2.239 5 5 5h30c2.761 0 5-2.239 5-5s-2.239-5-5-5zm35 20h-40c-2.761 0-5 2.239-5 5s2.239 5 5 5h40c2.761 0 5-2.239 5-5s-2.239-5-5-5z" fill="#aba6d5"/><path d="m206 385c0 13.807-11.193 25-25 25s-25-11.193-25-25 11.193-25 25-25 25 11.193 25 25zm50-25c-13.807 0-25 11.193-25 25s11.193 25 25 25 25-11.193 25-25-11.193-25-25-25zm75 0c-13.807 0-25 11.193-25 25s11.193 25 25 25 25-11.193 25-25-11.193-25-25-25z" fill="#c1bde0"/><path d="m268.149 375.511c0 2.761-2.239 5-5 5h-14.299c-2.761 0-5-2.239-5-5s2.239-5 5-5h14.299c2.762 0 5 2.239 5 5zm-7.429 15h-9.439c-2.761 0-5 2.239-5 5s2.239 5 5 5h9.439c2.761 0 5-2.239 5-5s-2.239-5-5-5zm-72.57-20h-14.3c-2.761 0-5 2.239-5 5s2.239 5 5 5h14.299c2.761 0 5-2.239 5-5 .001-2.761-2.238-5-4.999-5zm-2.43 20h-9.439c-2.761 0-5 2.239-5 5s2.239 5 5 5h9.439c2.761 0 5-2.239 5-5s-2.239-5-5-5zm152.43-20h-14.3c-2.761 0-5 2.239-5 5s2.239 5 5 5h14.299c2.761 0 5-2.239 5-5 .001-2.761-2.238-5-4.999-5zm-2.43 20h-9.439c-2.761 0-5 2.239-5 5s2.239 5 5 5h9.439c2.761 0 5-2.239 5-5s-2.239-5-5-5z" fill="#fff5f5"/><path d="m350 195c0 30.376-24.624 55-55 55s-55-24.624-55-55 24.624-55 55-55 55 24.624 55 55z" fill="#fff36c"/><path d="m330 195c0 19.33-15.67 35-35 35s-35-15.67-35-35 15.67-35 35-35 35 15.67 35 35z" fill="#ffc14f"/><path d="m340 240c0 11.046-8.954 20-20 20h-140c-11.046 0-20-8.954-20-20s8.954-20 20-20c11.046 0 20-8.954 20-20s8.954-20 20-20h50c11.046 0 20 8.954 20 20s8.954 20 20 20h10c11.046 0 20 8.954 20 20z" fill="#7cd2e3"/><path d="m250 180c-11.046 0-20 8.954-20 20s-8.954 20-20 20-20 8.954-20 20 8.954 20 20 20h-30c-11.046 0-20-8.954-20-20s8.954-20 20-20 20-8.954 20-20 8.954-20 20-20z" fill="#44bfd7"/><path d="m215 285v10c0 2.761-2.239 5-5 5s-5-2.239-5-5v-10c0-2.761 2.239-5 5-5s5 2.239 5 5zm75-5c-2.761 0-5 2.239-5 5v10c0 2.761 2.239 5 5 5s5-2.239 5-5v-10c0-2.761-2.239-5-5-5zm-20 0c-2.761 0-5 2.239-5 5v40c0 2.761 2.239 5 5 5s5-2.239 5-5v-40c0-2.761-2.239-5-5-5zm-20 0c-2.761 0-5 2.239-5 5v30c0 2.761 2.239 5 5 5s5-2.239 5-5v-30c0-2.761-2.239-5-5-5zm-20 0c-2.761 0-5 2.239-5 5v40c0 2.761 2.239 5 5 5s5-2.239 5-5v-40c0-2.761-2.239-5-5-5z" fill="#a6e0ec"/><path d="m146.709 131.792c0 22.557-18.286 40.843-40.843 40.843-4.557 0-8.94-.746-13.033-2.124-1.377-4.093-2.124-8.476-2.124-13.033 0-22.557 18.286-40.843 40.843-40.843 4.557 0 8.94.747 13.033 2.124 1.377 4.093 2.124 8.476 2.124 13.033z" fill="#ea552d"/><path d="m430.877 91.562c-6.933 22.679-25.376 37.143-41.195 32.308-4.022-1.229-7.487-3.589-10.305-6.797-7.437 15.567-19.833 24.97-30.2 21.801-8.616-2.634-13.539-13.251-13.499-26.559-3.115 1.361-6.399 2.586-9.825 3.647-26.968 8.35-52.474 3.348-56.971-11.173-.958-3.094-.885-6.371.085-9.692.453-1.553 1.752-2.711 3.345-2.99 51.607-9.057 101.855-24.794 149.385-46.768 10.853 8.39 15.003 27.174 9.18 46.223z" fill="#f44545"/><path d="m419.612 43.905c.509.309 1.006.639 1.49.989-43.977 32.613-97.501 50.356-152.22 50.499 3.166-11.473 17.089-23.533 36.189-30.501-3.372-5.106-4.631-10.504-3.115-15.461 2.588-8.465 12.599-13.472 25.269-13.84-1.457-4.161-1.491-8.138.186-11.52 4.903-9.888 22.696-11.21 40.904-3.501-2.021-5.653-1.837-11.026 1.033-14.97 6.224-8.552 22.72-7.151 36.845 3.128 14.125 10.28 20.531 25.546 14.307 34.098-.276.379-.572.738-.888 1.079z" fill="#f76937"/><path d="m453.583 24.497c-10.438 9.632-23.979 19.552-38.927 28.859-.731 13.862-6.584 32.028-13.996 42.847-.969 1.414-2.536 2.174-4.13 2.174-.974 0-1.957-.284-2.821-.876-2.278-1.561-2.859-4.673-1.299-6.951 5.135-7.494 9.622-19.927 11.45-30.719-7.857 4.541-15.973 8.87-24.128 12.87-2.593 12.65-11.899 29.498-21.218 38.4-.969.925-2.212 1.385-3.453 1.385-1.318 0-2.634-.518-3.616-1.546-1.907-1.997-1.835-5.162.161-7.069 6.03-5.76 12.419-16.167 15.999-25.477-16.147 7.234-32.018 12.948-45.899 16.23-.387.091-.773.135-1.154.135-2.266 0-4.318-1.55-4.862-3.851-.635-2.687 1.028-5.381 3.716-6.016 11.509-2.721 24.435-7.174 37.729-12.799-6.519-2.14-12.885-5.207-17.37-8.585-2.205-1.662-2.646-4.797-.984-7.002 1.661-2.206 4.796-2.646 7.002-.985 6.43 4.844 18.573 9.199 26.739 9.619 7.663-3.678 15.315-7.669 22.762-11.87-10.362-2.238-21.231-6.481-28.531-11.482-2.278-1.561-2.859-4.673-1.299-6.951 1.561-2.278 4.672-2.86 6.951-1.298 9.024 6.184 25.771 11.354 36.885 11.429 14.405-8.975 27.451-18.537 37.514-27.823 2.026-1.872 5.19-1.747 7.065.284 1.87 2.032 1.743 5.195-.286 7.068zm-329.331 107.15c-15.021 9.459-32.208 29.671-39.13 46.016-1.076 2.543.112 5.477 2.654 6.554.637.27 1.298.397 1.948.397 1.947 0 3.799-1.146 4.606-3.052 6.131-14.478 21.943-33.074 35.249-41.453 2.337-1.472 3.038-4.559 1.566-6.896-1.469-2.335-4.556-3.037-6.893-1.566z" fill="#954c35"/><path d="m89.709 297.456c0 4.557-.746 8.94-2.124 13.033-4.093 1.377-8.476 2.124-13.033 2.124-22.557 0-40.843-18.286-40.843-40.844 0-4.557.746-8.94 2.124-13.033 4.093-1.377 8.476-2.124 13.033-2.124 22.557.001 40.843 18.287 40.843 40.844z" fill="#ff9f22"/><path d="m483.727 267.769c0 22.557-18.286 40.844-40.844 40.844-4.557 0-8.94-.747-13.033-2.124-1.377-4.093-2.124-8.476-2.124-13.033 0-22.557 18.286-40.843 40.843-40.843 4.557 0 8.94.746 13.033 2.124 1.378 4.092 2.125 8.475 2.125 13.032z" fill="#fff36c"/><path d="m489.313 247.585c-6.922 16.345-24.109 36.557-39.13 46.015-.827.521-1.749.77-2.659.77-1.661 0-3.285-.827-4.236-2.336-1.471-2.336-.77-5.424 1.567-6.895 13.305-8.378 29.118-26.974 35.249-41.453 1.078-2.543 4.013-3.731 6.555-2.654 2.542 1.076 3.73 4.01 2.654 6.553z" fill="#f29500"/></g></svg>