<?xml version="1.0" encoding="iso-8859-1"?>
<!-- Generator: Adobe Illustrator 19.0.0, SVG Export Plug-In . SVG Version: 6.00 Build 0)  -->
<svg version="1.1" id="Capa_1" xmlns="http://www.w3.org/2000/svg" xmlns:xlink="http://www.w3.org/1999/xlink" x="0px" y="0px"
	 viewBox="0 0 512.009 512.009" style="enable-background:new 0 0 512.009 512.009;" xml:space="preserve">
<g>
	<g>
		<path d="M426.675,332.804h-57.114c19.132-14.788,31.514-37.794,31.514-63.676c0-14.217-3.149-27.332-8.713-38.724h59.913
			c32.939,0,59.733-26.803,59.733-59.733c0-32.93-26.795-59.733-59.733-59.733c-32.939,0-59.733,26.803-59.733,59.733
			c0,4.719,3.823,8.533,8.533,8.533s8.533-3.814,8.533-8.533c0-23.526,19.14-42.667,42.667-42.667
			c23.526,0,42.667,19.14,42.667,42.667c0,23.526-19.14,42.667-42.667,42.667h-68.267c-0.853,0-1.63,0.256-2.415,0.486
			c-12.22-14.31-29.397-23.68-49.254-25.685c-4.531-39.757-41.822-71.953-85.453-71.953c-10.035,0-19.021,0-28.698,3.584
			c-13.15-26.044-42.974-42.965-77.235-42.965c-44.86,0-81.357,36.215-81.357,80.742c0,3.61,0.265,7.279,0.794,10.974
			C24.474,182.396,0,217.331,0,256.004c0,51.755,42.436,93.867,94.601,93.867h16.333h208.768h106.965
			c37.641,0,68.267,30.626,68.267,68.267c0,37.641-30.626,68.267-68.267,68.267S358.4,455.778,358.4,418.138
			c0-4.719-3.823-8.533-8.533-8.533s-8.533,3.814-8.533,8.533c0,47.053,38.281,85.333,85.333,85.333S512,465.19,512,418.138
			S473.728,332.804,426.675,332.804z"/>
	</g>
</g>
<g>
	<g>
		<path d="M247.475,375.471h-179.2c-4.71,0-8.533,3.814-8.533,8.533s3.823,8.533,8.533,8.533h179.2
			c23.526,0,42.667,19.14,42.667,42.667s-19.14,42.667-42.667,42.667c-23.526,0-42.667-19.14-42.667-42.667
			c0-4.719-3.823-8.533-8.533-8.533c-4.71,0-8.533,3.814-8.533,8.533c0,32.93,26.795,59.733,59.733,59.733
			s59.733-26.803,59.733-59.733C307.209,402.274,280.414,375.471,247.475,375.471z"/>
	</g>
</g>
<g>
	<g>
		<path d="M34.142,375.471h-25.6c-4.71,0-8.533,3.814-8.533,8.533s3.823,8.533,8.533,8.533h25.6c4.71,0,8.533-3.814,8.533-8.533
			S38.852,375.471,34.142,375.471z"/>
	</g>
</g>
<g>
	<g>
		<path d="M503.475,264.538h-8.533c-4.71,0-8.533,3.814-8.533,8.533s3.823,8.533,8.533,8.533h8.533c4.71,0,8.533-3.814,8.533-8.533
			S508.186,264.538,503.475,264.538z"/>
	</g>
</g>
<g>
	<g>
		<path d="M460.809,264.538h-34.133c-4.71,0-8.533,3.814-8.533,8.533s3.823,8.533,8.533,8.533h34.133
			c4.71,0,8.533-3.814,8.533-8.533S465.519,264.538,460.809,264.538z"/>
	</g>
</g>
<g>
	<g>
		<path d="M358.409,8.538h-102.4c-4.71,0-8.533,3.814-8.533,8.533s3.823,8.533,8.533,8.533h102.4c4.71,0,8.533-3.814,8.533-8.533
			S363.119,8.538,358.409,8.538z"/>
	</g>
</g>
<g>
	<g>
		<path d="M418.142,8.538h-25.6c-4.71,0-8.533,3.814-8.533,8.533s3.823,8.533,8.533,8.533h25.6c4.71,0,8.533-3.814,8.533-8.533
			S422.852,8.538,418.142,8.538z"/>
	</g>
</g>
<g>
	<g>
		<path d="M384.009,51.204h-102.4c-4.71,0-8.533,3.814-8.533,8.533s3.823,8.533,8.533,8.533h102.4c4.71,0,8.533-3.814,8.533-8.533
			S388.719,51.204,384.009,51.204z"/>
	</g>
</g>
<g>
	<g>
		<path d="M247.475,51.204h-25.6c-4.71,0-8.533,3.814-8.533,8.533s3.823,8.533,8.533,8.533h25.6c4.71,0,8.533-3.814,8.533-8.533
			S252.186,51.204,247.475,51.204z"/>
	</g>
</g>
<g>
</g>
<g>
</g>
<g>
</g>
<g>
</g>
<g>
</g>
<g>
</g>
<g>
</g>
<g>
</g>
<g>
</g>
<g>
</g>
<g>
</g>
<g>
</g>
<g>
</g>
<g>
</g>
<g>
</g>
</svg>
